<svg xmlns="http://www.w3.org/2000/svg" xmlns:xlink="http://www.w3.org/1999/xlink" width="1920" zoomAndPan="magnify" viewBox="0 0 1440 809.999993" height="1080" preserveAspectRatio="xMidYMid meet" version="1.2"><defs/><g id="cc54e561a8"><g style="fill:#563913;fill-opacity:1;"><g transform="translate(321.981574, 361.140436)"><path style="stroke:none" d="M 13.15625 20.8125 C 15.226562 9.164062 18.097656 -3.507812 21.765625 -17.21875 C 25.429688 -30.9375 31.332031 -50.238281 39.46875 -75.125 L 23.6875 -73.4375 C 23.84375 -80.457031 30.460938 -85.320312 43.546875 -88.03125 C 49.441406 -106.0625 56.21875 -126.082031 63.875 -148.09375 C 64.03125 -148.5625 64.625 -150.3125 65.65625 -153.34375 C 66.695312 -156.375 67.21875 -159.328125 67.21875 -162.203125 C 67.21875 -163.472656 67.019531 -164.347656 66.625 -164.828125 C 66.226562 -165.304688 65.3125 -165.546875 63.875 -165.546875 C 58.925781 -165.546875 54.179688 -162.992188 49.640625 -157.890625 C 45.097656 -152.785156 41.390625 -146.644531 38.515625 -139.46875 C 35.640625 -132.289062 34.203125 -125.992188 34.203125 -120.578125 C 34.203125 -117.546875 34.601562 -114.832031 35.40625 -112.4375 C 30.457031 -112.4375 26.828125 -113.671875 24.515625 -116.140625 C 22.203125 -118.617188 21.046875 -121.929688 21.046875 -126.078125 C 21.046875 -132.929688 23.71875 -139.988281 29.0625 -147.25 C 34.40625 -154.507812 40.90625 -160.488281 48.5625 -165.1875 C 56.21875 -169.894531 63 -172.25 68.90625 -172.25 C 72.882812 -172.25 75.710938 -171.171875 77.390625 -169.015625 C 79.066406 -166.867188 79.90625 -164.117188 79.90625 -160.765625 C 79.90625 -158.054688 79.265625 -154.628906 77.984375 -150.484375 L 59.328125 -89.71875 C 65.066406 -90.03125 69.691406 -90.1875 73.203125 -90.1875 C 85.640625 -90.1875 99.195312 -89.46875 113.875 -88.03125 C 118.820312 -104.457031 123.566406 -119.445312 128.109375 -133 C 132.648438 -146.5625 135.957031 -155.5 138.03125 -159.8125 C 141.863281 -168.101562 146.253906 -172.25 151.203125 -172.25 C 148.003906 -163.789062 144.132812 -151.742188 139.59375 -136.109375 C 135.050781 -120.484375 130.546875 -104.140625 126.078125 -87.078125 C 127.671875 -87.078125 130.222656 -86.921875 133.734375 -86.609375 C 138.515625 -86.285156 141.941406 -86.125 144.015625 -86.125 C 140.828125 -82.769531 137.71875 -80.65625 134.6875 -79.78125 C 131.65625 -78.90625 128.066406 -78.46875 123.921875 -78.46875 C 120.578125 -64.75 118.101562 -53.820312 116.5 -45.6875 C 111.238281 -20.65625 108.609375 -1.359375 108.609375 12.203125 C 108.609375 15.066406 108.769531 17.9375 109.09375 20.8125 C 103.03125 20.175781 98.757812 18.460938 96.28125 15.671875 C 93.8125 12.878906 92.578125 8.375 92.578125 2.15625 C 92.578125 -7.09375 94.492188 -19.132812 98.328125 -33.96875 C 100.878906 -44.5 105.101562 -59.253906 111 -78.234375 C 98.238281 -78.234375 87.429688 -78.113281 78.578125 -77.875 C 69.734375 -77.632812 61.960938 -77.195312 55.265625 -76.5625 C 41.546875 -33.332031 33.015625 -5.976562 29.671875 5.5 C 28.066406 10.601562 25.671875 14.429688 22.484375 16.984375 C 19.296875 19.535156 16.1875 20.8125 13.15625 20.8125 Z M 13.15625 20.8125 "/></g></g><g style="fill:#563913;fill-opacity:1;"><g transform="translate(471.981097, 361.140436)"><path style="stroke:none" d="M 11.484375 11.25 C 6.222656 11.25 1.957031 9.53125 -1.3125 6.09375 C -4.582031 2.664062 -6.21875 -2.234375 -6.21875 -8.609375 C -6.21875 -18.023438 -2.832031 -28.550781 3.9375 -40.1875 C 10.71875 -51.832031 19.289062 -61.722656 29.65625 -69.859375 C 40.03125 -77.992188 50.160156 -82.0625 60.046875 -82.0625 C 66.265625 -82.0625 71.445312 -80.382812 75.59375 -77.03125 C 79.738281 -73.6875 81.8125 -69.378906 81.8125 -64.109375 C 81.8125 -60.441406 80.773438 -57.8125 78.703125 -56.21875 C 76.628906 -54.625 73.757812 -53.828125 70.09375 -53.828125 C 70.894531 -56.703125 71.296875 -59.492188 71.296875 -62.203125 C 71.296875 -66.191406 70.335938 -69.421875 68.421875 -71.890625 C 66.503906 -74.359375 63.550781 -75.59375 59.5625 -75.59375 C 52.550781 -75.59375 45.175781 -71.6875 37.4375 -63.875 C 29.707031 -56.0625 23.25 -46.734375 18.0625 -35.890625 C 12.875 -25.046875 10.28125 -15.710938 10.28125 -7.890625 C 10.28125 -1.671875 12.4375 1.4375 16.75 1.4375 C 23.125 1.4375 30.617188 -3.625 39.234375 -13.75 C 47.847656 -23.882812 57.097656 -36.207031 66.984375 -50.71875 C 69.054688 -50.394531 71.171875 -49.710938 73.328125 -48.671875 C 75.484375 -47.640625 76.5625 -46.328125 76.5625 -44.734375 C 76.5625 -43.460938 75.800781 -41.429688 74.28125 -38.640625 C 72.769531 -35.847656 71.851562 -34.210938 71.53125 -33.734375 C 68.820312 -29.109375 66.664062 -25 65.0625 -21.40625 C 63.46875 -17.820312 62.671875 -14.515625 62.671875 -11.484375 C 62.671875 -8.773438 63.347656 -6.34375 64.703125 -4.1875 C 66.066406 -2.03125 68.101562 -0.953125 70.8125 -0.953125 C 75.4375 -0.953125 81.253906 -4.257812 88.265625 -10.875 C 95.285156 -17.5 102.226562 -26.789062 109.09375 -38.75 L 111.484375 -36.359375 C 108.128906 -27.910156 103.820312 -20.375 98.5625 -13.75 C 93.300781 -7.132812 87.640625 -1.992188 81.578125 1.671875 C 75.515625 5.335938 69.691406 7.171875 64.109375 7.171875 C 58.523438 7.171875 54.257812 5.535156 51.3125 2.265625 C 48.363281 -0.992188 46.890625 -4.9375 46.890625 -9.5625 C 46.890625 -11.632812 47.128906 -13.945312 47.609375 -16.5 C 40.429688 -6.9375 34.007812 0.078125 28.34375 4.546875 C 22.6875 9.015625 17.066406 11.25 11.484375 11.25 Z M 11.484375 11.25 "/></g></g><g style="fill:#563913;fill-opacity:1;"><g transform="translate(578.679322, 361.140436)"><path style="stroke:none" d="M 41.390625 6.21875 C 35.960938 6.21875 31.691406 4.78125 28.578125 1.90625 C 25.472656 -0.957031 23.921875 -4.703125 23.921875 -9.328125 C 23.921875 -14.753906 26.234375 -22.570312 30.859375 -32.78125 C 32.929688 -38.039062 34.484375 -42.222656 35.515625 -45.328125 C 36.554688 -48.441406 37.078125 -51.351562 37.078125 -54.0625 C 37.078125 -58.050781 36.160156 -61.203125 34.328125 -63.515625 C 32.492188 -65.828125 30.457031 -67.738281 28.21875 -69.25 C 25.988281 -70.769531 24.476562 -71.769531 23.6875 -72.25 C 20.175781 -63.320312 16.425781 -54.585938 12.4375 -46.046875 C 8.445312 -37.515625 5.097656 -30.9375 2.390625 -26.3125 L 0.234375 -30.375 C 7.890625 -45.207031 14.351562 -60.363281 19.625 -75.84375 C 18.019531 -77.4375 17.21875 -79.347656 17.21875 -81.578125 C 17.21875 -84.453125 17.816406 -87.164062 19.015625 -89.71875 C 20.210938 -92.269531 21.648438 -94.257812 23.328125 -95.6875 C 25.003906 -97.125 26.316406 -97.84375 27.265625 -97.84375 C 29.503906 -97.84375 30.625 -95.929688 30.625 -92.109375 C 30.625 -91.460938 30.222656 -90.023438 29.421875 -87.796875 C 28.628906 -85.566406 28.148438 -84.050781 27.984375 -83.25 C 27.984375 -81.65625 28.660156 -80.179688 30.015625 -78.828125 C 31.378906 -77.472656 33.578125 -75.757812 36.609375 -73.6875 C 41.546875 -70.175781 45.410156 -66.707031 48.203125 -63.28125 C 50.992188 -59.851562 52.390625 -55.425781 52.390625 -50 C 52.390625 -46.488281 51.832031 -43.019531 50.71875 -39.59375 C 49.601562 -36.164062 47.925781 -31.660156 45.6875 -26.078125 C 42.1875 -18.421875 40.4375 -12.914062 40.4375 -9.5625 C 40.4375 -4.78125 42.828125 -2.390625 47.609375 -2.390625 C 52.390625 -2.390625 57.53125 -4.300781 63.03125 -8.125 C 68.539062 -11.957031 73.609375 -16.703125 78.234375 -22.359375 C 82.859375 -28.023438 86.207031 -33.25 88.28125 -38.03125 L 91.390625 -35.640625 C 86.441406 -24.640625 79.257812 -14.910156 69.84375 -6.453125 C 60.4375 1.992188 50.953125 6.21875 41.390625 6.21875 Z M 41.390625 6.21875 "/></g></g><g style="fill:#563913;fill-opacity:1;"><g transform="translate(664.324959, 361.140436)"><path style="stroke:none" d="M 120.578125 7.421875 C 115.304688 7.421875 111.316406 5.785156 108.609375 2.515625 C 105.898438 -0.753906 104.546875 -4.941406 104.546875 -10.046875 C 104.546875 -14.347656 105.820312 -20.648438 108.375 -28.953125 C 109.164062 -31.660156 109.921875 -34.367188 110.640625 -37.078125 C 111.359375 -39.785156 111.71875 -42.097656 111.71875 -44.015625 C 111.71875 -46.890625 111.039062 -49.039062 109.6875 -50.46875 C 108.332031 -51.90625 106.695312 -52.625 104.78125 -52.625 C 101.113281 -52.625 97.164062 -50.03125 92.9375 -44.84375 C 88.71875 -39.664062 82.21875 -30.378906 73.4375 -16.984375 C 71.207031 -13.472656 68.097656 -7.570312 64.109375 0.71875 L 61.96875 5.265625 C 59.414062 5.265625 56.742188 4.820312 53.953125 3.9375 C 51.160156 3.0625 49.765625 1.910156 49.765625 0.484375 C 49.765625 -0.640625 51.117188 -4.867188 53.828125 -12.203125 C 57.179688 -22.085938 59.851562 -30.421875 61.84375 -37.203125 C 63.832031 -43.984375 64.828125 -49.765625 64.828125 -54.546875 C 64.828125 -60.609375 62.835938 -63.640625 58.859375 -63.640625 C 54.390625 -63.640625 48.601562 -60.050781 41.5 -52.875 C 34.40625 -45.695312 27.425781 -36.644531 20.5625 -25.71875 C 13.707031 -14.789062 8.367188 -4.066406 4.546875 6.453125 C 2.148438 6.453125 -0.597656 5.894531 -3.703125 4.78125 C -6.816406 3.664062 -8.375 2.550781 -8.375 1.4375 C -8.375 0.957031 -7.257812 -2.789062 -5.03125 -9.8125 C -1.351562 -20.5 1.71875 -30.304688 4.1875 -39.234375 C 6.65625 -48.160156 7.972656 -55.894531 8.140625 -62.4375 C 9.253906 -63.71875 10.847656 -64.875 12.921875 -65.90625 C 14.992188 -66.945312 17.066406 -67.46875 19.140625 -67.46875 C 23.441406 -67.46875 25.59375 -65.394531 25.59375 -61.25 C 25.59375 -56.9375 23.519531 -47.84375 19.375 -33.96875 C 27.1875 -46.40625 35.597656 -57.085938 44.609375 -66.015625 C 53.628906 -74.953125 62.046875 -79.421875 69.859375 -79.421875 C 74.484375 -79.421875 77.789062 -77.742188 79.78125 -74.390625 C 81.78125 -71.046875 82.78125 -66.664062 82.78125 -61.25 C 82.78125 -55.820312 81.976562 -49.914062 80.375 -43.53125 C 78.78125 -37.15625 77.109375 -31.816406 75.359375 -27.515625 C 81.421875 -38.515625 87.71875 -47.40625 94.25 -54.1875 C 100.789062 -60.96875 107.734375 -64.359375 115.078125 -64.359375 C 119.859375 -64.359375 123.320312 -62.921875 125.46875 -60.046875 C 127.625 -57.171875 128.703125 -53.503906 128.703125 -49.046875 C 128.703125 -46.015625 128.300781 -42.78125 127.5 -39.34375 C 126.707031 -35.914062 125.515625 -31.734375 123.921875 -26.796875 C 121.210938 -18.335938 119.859375 -12.4375 119.859375 -9.09375 C 119.859375 -3.664062 122.25 -0.953125 127.03125 -0.953125 C 132.9375 -0.953125 138.519531 -4.582031 143.78125 -11.84375 C 149.039062 -19.101562 154.144531 -28.070312 159.09375 -38.75 L 161.96875 -35.40625 C 157.5 -23.601562 151.675781 -13.515625 144.5 -5.140625 C 137.320312 3.234375 129.347656 7.421875 120.578125 7.421875 Z M 120.578125 7.421875 "/></g></g><g style="fill:#563913;fill-opacity:1;"><g transform="translate(821.262292, 361.140436)"><path style="stroke:none" d="M 16.5 7.65625 C 9.96875 7.65625 5.1875 5.660156 2.15625 1.671875 C -0.875 -2.316406 -2.390625 -7.578125 -2.390625 -14.109375 C -2.390625 -20.648438 -1.035156 -27.507812 1.671875 -34.6875 C 4.378906 -41.863281 7.882812 -47.84375 12.1875 -52.625 C 16.5 -57.414062 20.8125 -59.8125 25.125 -59.8125 C 26.550781 -59.8125 28.222656 -59.410156 30.140625 -58.609375 C 28.222656 -57.015625 25.910156 -53.503906 23.203125 -48.078125 C 20.492188 -42.660156 18.140625 -36.878906 16.140625 -30.734375 C 14.148438 -24.597656 13.15625 -19.617188 13.15625 -15.796875 C 13.15625 -6.703125 16.023438 -2.15625 21.765625 -2.15625 C 25.117188 -2.15625 29.109375 -3.90625 33.734375 -7.40625 C 38.359375 -10.914062 42.90625 -15.546875 47.375 -21.296875 C 42.90625 -24.960938 39.429688 -29.742188 36.953125 -35.640625 C 34.484375 -41.546875 33.25 -47.6875 33.25 -54.0625 C 33.25 -62.351562 35.363281 -69.445312 39.59375 -75.34375 C 43.820312 -81.25 49.523438 -84.203125 56.703125 -84.203125 C 62.765625 -84.203125 67.03125 -82.566406 69.5 -79.296875 C 71.96875 -76.035156 73.203125 -71.535156 73.203125 -65.796875 C 73.203125 -59.734375 71.726562 -52.910156 68.78125 -45.328125 C 65.832031 -37.753906 61.960938 -30.378906 57.171875 -23.203125 C 60.046875 -21.609375 63.078125 -20.8125 66.265625 -20.8125 C 70.890625 -20.8125 75.671875 -22.207031 80.609375 -25 C 85.554688 -27.789062 89.304688 -32.132812 91.859375 -38.03125 L 94.734375 -35.640625 C 91.703125 -28.628906 87.394531 -23.445312 81.8125 -20.09375 C 76.226562 -16.75 70.488281 -15.078125 64.59375 -15.078125 C 60.289062 -15.078125 56.460938 -15.875 53.109375 -17.46875 C 47.367188 -9.96875 41.269531 -3.90625 34.8125 0.71875 C 28.351562 5.34375 22.25 7.65625 16.5 7.65625 Z M 51.671875 -27.515625 C 55.816406 -33.734375 59.164062 -40.070312 61.71875 -46.53125 C 64.269531 -52.988281 65.546875 -58.929688 65.546875 -64.359375 C 65.546875 -68.816406 64.867188 -72.160156 63.515625 -74.390625 C 62.160156 -76.628906 60.445312 -77.75 58.375 -77.75 C 56.144531 -77.75 53.875 -76.671875 51.5625 -74.515625 C 49.25 -72.367188 47.332031 -69.421875 45.8125 -65.671875 C 44.300781 -61.921875 43.546875 -57.8125 43.546875 -53.34375 C 43.546875 -48.40625 44.222656 -43.660156 45.578125 -39.109375 C 46.929688 -34.566406 48.960938 -30.703125 51.671875 -27.515625 Z M 51.671875 -27.515625 "/></g></g><g style="fill:#563913;fill-opacity:1;"><g transform="translate(910.974923, 361.140436)"><path style="stroke:none" d="M 77.265625 4.78125 C 71.847656 4.78125 67.703125 3.382812 64.828125 0.59375 C 61.960938 -2.195312 60.53125 -5.90625 60.53125 -10.53125 C 60.53125 -12.601562 60.882812 -15.035156 61.59375 -17.828125 C 62.3125 -20.617188 63.070312 -23.367188 63.875 -26.078125 C 64.832031 -28.941406 65.671875 -31.96875 66.390625 -35.15625 C 67.109375 -38.351562 67.46875 -41.226562 67.46875 -43.78125 C 67.46875 -51.59375 64.273438 -55.5 57.890625 -55.5 C 51.828125 -55.5 45.488281 -52.304688 38.875 -45.921875 C 32.257812 -39.546875 26.359375 -32.453125 21.171875 -24.640625 C 15.984375 -16.828125 10.125 -7.414062 3.59375 3.59375 C 0.875 3.59375 -1.597656 3.148438 -3.828125 2.265625 C -6.054688 1.390625 -7.8125 0.078125 -9.09375 -1.671875 C -9.09375 -2.472656 -8.054688 -5.34375 -5.984375 -10.28125 C -1.992188 -20.488281 1.273438 -29.78125 3.828125 -38.15625 C 6.378906 -46.53125 7.734375 -53.988281 7.890625 -60.53125 C 9.003906 -61.800781 10.597656 -62.953125 12.671875 -63.984375 C 14.753906 -65.023438 16.832031 -65.546875 18.90625 -65.546875 C 23.207031 -65.546875 25.359375 -63.472656 25.359375 -59.328125 C 25.359375 -56.929688 24.640625 -52.742188 23.203125 -46.765625 C 21.765625 -40.785156 19.929688 -34.445312 17.703125 -27.75 C 25.359375 -39.550781 33.492188 -49.519531 42.109375 -57.65625 C 50.722656 -65.789062 59.175781 -69.859375 67.46875 -69.859375 C 73.363281 -69.859375 77.785156 -67.742188 80.734375 -63.515625 C 83.691406 -59.285156 85.171875 -54.222656 85.171875 -48.328125 C 85.171875 -44.816406 84.726562 -41.46875 83.84375 -38.28125 C 82.96875 -35.09375 81.65625 -31.421875 79.90625 -27.265625 C 78.46875 -23.765625 77.347656 -20.738281 76.546875 -18.1875 C 75.753906 -15.632812 75.359375 -13.082031 75.359375 -10.53125 C 75.359375 -4.46875 77.75 -1.4375 82.53125 -1.4375 C 87.957031 -1.4375 93.582031 -5.023438 99.40625 -12.203125 C 105.226562 -19.378906 110.769531 -28.226562 116.03125 -38.75 L 118.65625 -35.640625 C 107.175781 -8.691406 93.378906 4.78125 77.265625 4.78125 Z M 77.265625 4.78125 "/></g></g><g style="fill:#563913;fill-opacity:1;"><g transform="translate(1024.850181, 361.140436)"><path style="stroke:none" d="M 10.28125 66.984375 C 5.976562 66.984375 2.394531 65.863281 -0.46875 63.625 C -3.34375 61.394531 -4.78125 58.289062 -4.78125 54.3125 C -4.78125 47.925781 -2.75 42.300781 1.3125 37.4375 C 5.382812 32.570312 10.367188 28.34375 16.265625 24.75 C 22.171875 21.164062 30.625 16.582031 41.625 11 C 46.40625 -1.28125 50.875 -15.875 55.03125 -32.78125 C 49.28125 -23.363281 43.535156 -15.941406 37.796875 -10.515625 C 32.054688 -5.097656 26.15625 -2.390625 20.09375 -2.390625 C 14.988281 -2.390625 10.519531 -4.0625 6.6875 -7.40625 C 2.863281 -10.757812 0.953125 -15.546875 0.953125 -21.765625 C 0.953125 -27.503906 2.226562 -34.519531 4.78125 -42.8125 C 7.332031 -51.113281 10.28125 -58.375 13.625 -64.59375 C 16.976562 -70.8125 19.773438 -73.921875 22.015625 -73.921875 C 23.441406 -73.921875 25.550781 -73.320312 28.34375 -72.125 C 31.132812 -70.925781 32.53125 -69.691406 32.53125 -68.421875 C 29.34375 -63.796875 25.914062 -56.335938 22.25 -46.046875 C 18.582031 -35.765625 16.75 -27.59375 16.75 -21.53125 C 16.75 -15.15625 19.617188 -11.96875 25.359375 -11.96875 C 29.660156 -11.96875 34.722656 -14.914062 40.546875 -20.8125 C 46.367188 -26.71875 51.910156 -33.972656 57.171875 -42.578125 C 57.972656 -45.296875 58.769531 -48.96875 59.5625 -53.59375 C 60.207031 -56.625 61.523438 -59.414062 63.515625 -61.96875 C 65.503906 -64.519531 68.253906 -65.796875 71.765625 -65.796875 C 73.203125 -65.796875 74.878906 -65.554688 76.796875 -65.078125 C 76.796875 -60.765625 75 -51.910156 71.40625 -38.515625 C 67.820312 -25.117188 63.398438 -11.644531 58.140625 1.90625 C 66.109375 -1.28125 73.597656 -6.257812 80.609375 -13.03125 C 87.628906 -19.8125 93.296875 -28.382812 97.609375 -38.75 L 100.71875 -36.359375 C 94.8125 -17.703125 79.738281 -2.789062 55.5 8.375 C 48.476562 25.59375 41.097656 39.664062 33.359375 50.59375 C 25.628906 61.519531 17.9375 66.984375 10.28125 66.984375 Z M 9.09375 59.328125 C 10.84375 59.328125 13.3125 57.851562 16.5 54.90625 C 19.695312 51.957031 23.285156 47.289062 27.265625 40.90625 C 31.253906 34.53125 35.242188 26.476562 39.234375 16.75 C 30.785156 21.207031 24.128906 24.992188 19.265625 28.109375 C 14.398438 31.222656 10.410156 34.769531 7.296875 38.75 C 4.179688 42.738281 2.625 47.207031 2.625 52.15625 C 2.625 53.75 3.179688 55.34375 4.296875 56.9375 C 5.421875 58.53125 7.019531 59.328125 9.09375 59.328125 Z M 9.09375 59.328125 "/></g></g><g style="fill:#563913;fill-opacity:1;"><g transform="translate(473.309547, 600.374449)"><path style="stroke:none" d="M 39 20.8125 C 33.25 20.8125 28.257812 20.050781 24.03125 18.53125 C 19.8125 17.019531 16.265625 14.191406 13.390625 10.046875 C 17.546875 -9.890625 24.207031 -34.648438 33.375 -64.234375 C 42.539062 -93.816406 49.675781 -115.304688 54.78125 -128.703125 C 56.695312 -133.804688 59.25 -138.832031 62.4375 -143.78125 C 65.625 -148.726562 69.289062 -151.203125 73.4375 -151.203125 C 75.675781 -151.203125 77.910156 -150.398438 80.140625 -148.796875 C 70.578125 -126.628906 60.890625 -99.992188 51.078125 -68.890625 C 41.265625 -37.796875 33.726562 -10.285156 28.46875 13.640625 C 32.289062 14.273438 35.71875 14.59375 38.75 14.59375 C 55.175781 14.59375 70.882812 8.453125 85.875 -3.828125 C 100.875 -16.109375 113 -31.859375 122.25 -51.078125 C 131.5 -70.296875 136.125 -89.710938 136.125 -109.328125 C 136.125 -127.992188 131.738281 -142.070312 122.96875 -151.5625 C 114.195312 -161.050781 102.234375 -165.796875 87.078125 -165.796875 C 76.867188 -165.796875 67.578125 -163.757812 59.203125 -159.6875 C 50.835938 -155.625 44.257812 -150.003906 39.46875 -142.828125 C 34.6875 -135.648438 32.296875 -127.753906 32.296875 -119.140625 C 32.296875 -115.628906 32.695312 -112.675781 33.5 -110.28125 C 28.550781 -110.28125 24.921875 -111.515625 22.609375 -113.984375 C 20.296875 -116.460938 19.140625 -119.695312 19.140625 -123.6875 C 19.140625 -131.175781 22.566406 -138.671875 29.421875 -146.171875 C 36.285156 -153.671875 45.5 -159.890625 57.0625 -164.828125 C 68.625 -169.773438 81.023438 -172.25 94.265625 -172.25 C 114.515625 -172.25 129.503906 -166.265625 139.234375 -154.296875 C 148.960938 -142.335938 153.828125 -126.472656 153.828125 -106.703125 C 153.828125 -84.367188 148.203125 -63.394531 136.953125 -43.78125 C 125.710938 -24.164062 111.203125 -8.5 93.421875 3.21875 C 75.640625 14.945312 57.5 20.8125 39 20.8125 Z M 39 20.8125 "/></g></g><g style="fill:#563913;fill-opacity:1;"><g transform="translate(631.92151, 600.374449)"><path style="stroke:none" d="M 25.84375 10.53125 C 16.425781 10.53125 9.207031 7.9375 4.1875 2.75 C -0.832031 -2.4375 -3.34375 -9.09375 -3.34375 -17.21875 C -3.34375 -26.632812 -0.234375 -36.765625 5.984375 -47.609375 C 12.203125 -58.453125 20.054688 -67.582031 29.546875 -75 C 39.035156 -82.414062 48.328125 -86.125 57.421875 -86.125 C 67.304688 -86.125 72.25 -81.257812 72.25 -71.53125 C 72.25 -63.71875 69.296875 -56.421875 63.390625 -49.640625 C 57.492188 -42.859375 49.921875 -37.316406 40.671875 -33.015625 C 31.421875 -28.710938 22.171875 -26.082031 12.921875 -25.125 C 12.285156 -22.40625 11.96875 -19.53125 11.96875 -16.5 C 11.96875 -10.757812 13.398438 -5.972656 16.265625 -2.140625 C 19.140625 1.679688 24.003906 3.59375 30.859375 3.59375 C 40.585938 3.59375 50.394531 -0.472656 60.28125 -8.609375 C 70.175781 -16.742188 78.234375 -26.789062 84.453125 -38.75 L 87.328125 -36.609375 C 80.941406 -22.410156 72.085938 -11.003906 60.765625 -2.390625 C 49.441406 6.222656 37.800781 10.53125 25.84375 10.53125 Z M 14.109375 -29.671875 C 20.804688 -32.054688 27.820312 -35.398438 35.15625 -39.703125 C 42.5 -44.015625 48.757812 -49.082031 53.9375 -54.90625 C 59.125 -60.726562 61.71875 -66.828125 61.71875 -73.203125 C 61.71875 -75.117188 61.359375 -76.515625 60.640625 -77.390625 C 59.921875 -78.265625 58.609375 -78.703125 56.703125 -78.703125 C 51.753906 -78.703125 46.367188 -76.226562 40.546875 -71.28125 C 34.722656 -66.34375 29.378906 -60.046875 24.515625 -52.390625 C 19.648438 -44.734375 16.179688 -37.160156 14.109375 -29.671875 Z M 14.109375 -29.671875 "/></g></g><g style="fill:#563913;fill-opacity:1;"><g transform="translate(713.97866, 600.374449)"><path style="stroke:none" d="M 25.59375 13.390625 C 17.625 13.390625 11.164062 10.757812 6.21875 5.5 C 1.269531 0.238281 -1.203125 -7.332031 -1.203125 -17.21875 C -1.203125 -27.59375 1.425781 -37.722656 6.6875 -47.609375 C 11.957031 -57.492188 18.695312 -65.503906 26.90625 -71.640625 C 35.125 -77.785156 43.222656 -80.859375 51.203125 -80.859375 C 57.253906 -80.859375 61.597656 -79.144531 64.234375 -75.71875 C 66.867188 -72.289062 68.1875 -68.101562 68.1875 -63.15625 C 68.1875 -58.375 67.109375 -54.265625 64.953125 -50.828125 C 62.796875 -47.398438 59.882812 -45.6875 56.21875 -45.6875 C 53.507812 -45.6875 51.195312 -46.882812 49.28125 -49.28125 C 51.675781 -50.394531 53.75 -52.90625 55.5 -56.8125 C 57.257812 -60.71875 58.140625 -64.507812 58.140625 -68.1875 C 58.140625 -70.257812 57.738281 -71.769531 56.9375 -72.71875 C 56.132812 -73.675781 54.78125 -74.15625 52.875 -74.15625 C 47.445312 -74.15625 41.660156 -70.925781 35.515625 -64.46875 C 29.378906 -58.007812 24.195312 -50.15625 19.96875 -40.90625 C 15.75 -31.65625 13.640625 -23.203125 13.640625 -15.546875 C 13.640625 -9.804688 14.992188 -5.0625 17.703125 -1.3125 C 20.410156 2.4375 24.875 4.3125 31.09375 4.3125 C 40.820312 4.3125 50.429688 0.320312 59.921875 -7.65625 C 69.410156 -15.632812 76.707031 -26.082031 81.8125 -39 L 84.921875 -36.609375 C 81.253906 -27.035156 76.226562 -18.457031 69.84375 -10.875 C 63.46875 -3.300781 56.410156 2.632812 48.671875 6.9375 C 40.941406 11.238281 33.25 13.390625 25.59375 13.390625 Z M 25.59375 13.390625 "/></g></g><g style="fill:#563913;fill-opacity:1;"><g transform="translate(793.643447, 600.374449)"><path style="stroke:none" d="M 16.5 7.65625 C 9.96875 7.65625 5.1875 5.660156 2.15625 1.671875 C -0.875 -2.316406 -2.390625 -7.578125 -2.390625 -14.109375 C -2.390625 -20.648438 -1.035156 -27.507812 1.671875 -34.6875 C 4.378906 -41.863281 7.882812 -47.84375 12.1875 -52.625 C 16.5 -57.414062 20.8125 -59.8125 25.125 -59.8125 C 26.550781 -59.8125 28.222656 -59.410156 30.140625 -58.609375 C 28.222656 -57.015625 25.910156 -53.503906 23.203125 -48.078125 C 20.492188 -42.660156 18.140625 -36.878906 16.140625 -30.734375 C 14.148438 -24.597656 13.15625 -19.617188 13.15625 -15.796875 C 13.15625 -6.703125 16.023438 -2.15625 21.765625 -2.15625 C 25.117188 -2.15625 29.109375 -3.90625 33.734375 -7.40625 C 38.359375 -10.914062 42.90625 -15.546875 47.375 -21.296875 C 42.90625 -24.960938 39.429688 -29.742188 36.953125 -35.640625 C 34.484375 -41.546875 33.25 -47.6875 33.25 -54.0625 C 33.25 -62.351562 35.363281 -69.445312 39.59375 -75.34375 C 43.820312 -81.25 49.523438 -84.203125 56.703125 -84.203125 C 62.765625 -84.203125 67.03125 -82.566406 69.5 -79.296875 C 71.96875 -76.035156 73.203125 -71.535156 73.203125 -65.796875 C 73.203125 -59.734375 71.726562 -52.910156 68.78125 -45.328125 C 65.832031 -37.753906 61.960938 -30.378906 57.171875 -23.203125 C 60.046875 -21.609375 63.078125 -20.8125 66.265625 -20.8125 C 70.890625 -20.8125 75.671875 -22.207031 80.609375 -25 C 85.554688 -27.789062 89.304688 -32.132812 91.859375 -38.03125 L 94.734375 -35.640625 C 91.703125 -28.628906 87.394531 -23.445312 81.8125 -20.09375 C 76.226562 -16.75 70.488281 -15.078125 64.59375 -15.078125 C 60.289062 -15.078125 56.460938 -15.875 53.109375 -17.46875 C 47.367188 -9.96875 41.269531 -3.90625 34.8125 0.71875 C 28.351562 5.34375 22.25 7.65625 16.5 7.65625 Z M 51.671875 -27.515625 C 55.816406 -33.734375 59.164062 -40.070312 61.71875 -46.53125 C 64.269531 -52.988281 65.546875 -58.929688 65.546875 -64.359375 C 65.546875 -68.816406 64.867188 -72.160156 63.515625 -74.390625 C 62.160156 -76.628906 60.445312 -77.75 58.375 -77.75 C 56.144531 -77.75 53.875 -76.671875 51.5625 -74.515625 C 49.25 -72.367188 47.332031 -69.421875 45.8125 -65.671875 C 44.300781 -61.921875 43.546875 -57.8125 43.546875 -53.34375 C 43.546875 -48.40625 44.222656 -43.660156 45.578125 -39.109375 C 46.929688 -34.566406 48.960938 -30.703125 51.671875 -27.515625 Z M 51.671875 -27.515625 "/></g></g><g style="fill:#563913;fill-opacity:1;"><g transform="translate(883.356078, 600.374449)"><path style="stroke:none" d="M 41.390625 6.21875 C 35.960938 6.21875 31.691406 4.78125 28.578125 1.90625 C 25.472656 -0.957031 23.921875 -4.703125 23.921875 -9.328125 C 23.921875 -14.753906 26.234375 -22.570312 30.859375 -32.78125 C 32.929688 -38.039062 34.484375 -42.222656 35.515625 -45.328125 C 36.554688 -48.441406 37.078125 -51.351562 37.078125 -54.0625 C 37.078125 -58.050781 36.160156 -61.203125 34.328125 -63.515625 C 32.492188 -65.828125 30.457031 -67.738281 28.21875 -69.25 C 25.988281 -70.769531 24.476562 -71.769531 23.6875 -72.25 C 20.175781 -63.320312 16.425781 -54.585938 12.4375 -46.046875 C 8.445312 -37.515625 5.097656 -30.9375 2.390625 -26.3125 L 0.234375 -30.375 C 7.890625 -45.207031 14.351562 -60.363281 19.625 -75.84375 C 18.019531 -77.4375 17.21875 -79.347656 17.21875 -81.578125 C 17.21875 -84.453125 17.816406 -87.164062 19.015625 -89.71875 C 20.210938 -92.269531 21.648438 -94.257812 23.328125 -95.6875 C 25.003906 -97.125 26.316406 -97.84375 27.265625 -97.84375 C 29.503906 -97.84375 30.625 -95.929688 30.625 -92.109375 C 30.625 -91.460938 30.222656 -90.023438 29.421875 -87.796875 C 28.628906 -85.566406 28.148438 -84.050781 27.984375 -83.25 C 27.984375 -81.65625 28.660156 -80.179688 30.015625 -78.828125 C 31.378906 -77.472656 33.578125 -75.757812 36.609375 -73.6875 C 41.546875 -70.175781 45.410156 -66.707031 48.203125 -63.28125 C 50.992188 -59.851562 52.390625 -55.425781 52.390625 -50 C 52.390625 -46.488281 51.832031 -43.019531 50.71875 -39.59375 C 49.601562 -36.164062 47.925781 -31.660156 45.6875 -26.078125 C 42.1875 -18.421875 40.4375 -12.914062 40.4375 -9.5625 C 40.4375 -4.78125 42.828125 -2.390625 47.609375 -2.390625 C 52.390625 -2.390625 57.53125 -4.300781 63.03125 -8.125 C 68.539062 -11.957031 73.609375 -16.703125 78.234375 -22.359375 C 82.859375 -28.023438 86.207031 -33.25 88.28125 -38.03125 L 91.390625 -35.640625 C 86.441406 -24.640625 79.257812 -14.910156 69.84375 -6.453125 C 60.4375 1.992188 50.953125 6.21875 41.390625 6.21875 Z M 41.390625 6.21875 "/></g></g></g></svg>